<?xml version="1.0" encoding="utf-8"?>
<!-- Generator: Adobe Illustrator 23.0.5, SVG Export Plug-In . SVG Version: 6.00 Build 0)  -->
<svg version="1.1" id="Layer_1" xmlns="http://www.w3.org/2000/svg" xmlns:xlink="http://www.w3.org/1999/xlink" x="0px" y="0px"
	 viewBox="0 0 1098 648" style="enable-background:new 0 0 1098 648;" xml:space="preserve">
<style type="text/css">
	.st0{fill:#39AE41;}
</style>
<g>
	<path class="st0" d="M635.93,343.79c1.8,2.75-0.36,6.37,1.97,9.01c0,2,0,4,0,6c-0.82,2-0.82,4,0,6c0,11.67,0,23.33,0,35
		c-2.38,4.83-1.77,10.23-2.93,15.31c-1.93,8.39-3.31,16.91-7.04,24.78c-0.65-0.17-1.24-0.69-1.85-0.71
		c-7.14-0.27-8.9-4.86-9.23-10.97c-0.35-6.4-3.12-12.22-5.05-18.21c-1.53-4.75-2.2-9.13-0.56-14.07c3.61-10.92,4.79-22.46,8.05-33.5
		c1.84-6.21,4.97-11.63,9.34-16.33C630.55,344.04,632.64,341.84,635.93,343.79z"/>
	<path class="st0" d="M129.03,414.8c-1.8-4.5-0.57-9.67-3.13-14c0-3.67,0-7.33,0-11c2.17-3.7,6.02-3.91,9.57-4.21
		c4.02-0.33,7.82-1.17,11.53-2.72c5.37-2.25,10.85-3.96,16.84-3.58c2.97,0.19,5.88-0.85,8.8-1.42c4.34-0.85,7.39-2.61,7.09-7.8
		c-0.07-1.2-0.44-4.24,2.81-2.69c1.85,5.96,0.6,12.08,0.88,18.12c0.16,3.44,0.11,6.9-0.04,10.35c-0.06,3.49-2.03,5.42-5.19,6.46
		c-2.05,0.68-4.08,1.42-6.23,1.73c-9.94,1.43-19.28,4.83-28.57,8.48C138.83,414.31,134.16,416.21,129.03,414.8z"/>
	<path class="st0" d="M181.67,366.8c-0.26,0.76-0.68,1.51-0.74,2.29c-0.59,8.45-0.57,8.47-8.72,10.44c-2.08,0.5-4.25,1.36-6.28,1.14
		c-8.27-0.88-15.58,2.16-22.84,5.27c-3.5,1.5-7.2,0.26-10.73,1.47c-2.18,0.74-4.41,1.28-6.46,2.39c0-6.33,0-12.67,0-19
		c6.45-3.32,13.64-2.95,20.45-3.21c10.15-0.38,20.19-1.2,30.22-2.61c1.64-0.23,3.3-0.53,4.88,0.32
		C182.07,365.72,182.14,366.22,181.67,366.8z"/>
	<path class="st0" d="M125.9,354.8c2.29-2.63,0.4-6.22,2.04-9c5.9-1.48,12.04-1.97,17.97-2.17c11.02-0.37,22.07-2.47,33.13-0.36
		c1.61,0.31,3.31,0.14,4.78,1.09c2.52,3.3,0.65,6.57-0.04,9.86c-1.06,3.22-3.58,4.06-6.64,4.1c-5.31,0.07-10.62,0.07-15.92,0.02
		c-5.48-0.05-10.88,0.57-16.33,1.19c-6.32,0.72-12.83,0.8-18.98-1.72C125.9,356.8,125.9,355.8,125.9,354.8z"/>
	<path class="st0" d="M125.9,357.8c17.5,1.23,34.92-2.18,52.42-0.95c2.57,0.18,3.5-1.2,4.37-3.06c2.7,4.24,1.31,8.16-0.96,12
		c-18.46,3.37-37.26,2.94-55.83,5c0-1.33,0-2.67,0-4c0.82-2,0.82-4,0-6C125.9,359.8,125.9,358.8,125.9,357.8z"/>
	<path d="M125.9,360.8c1.59,2,1.48,4,0,6C125.9,364.8,125.9,362.8,125.9,360.8z"/>
	<path class="st0" d="M637.9,364.8c-1.53-2-1.53-4,0-6C637.9,360.8,637.9,362.8,637.9,364.8z"/>
	<path class="st0" d="M129.03,414.8c13.61-1.9,25.54-9.53,39.11-11.56c3.59-0.54,7.09-1.31,10.53-2.47c2.12-0.71,3.49-1.79,3.34-4.2
		c2.49,0.57,2.01,2.79,2.31,4.44c1.23,6.74,3.16,13.17,6.17,19.4c9.61,19.9,30.41,23.63,47.9,15.64
		c11.68-5.34,19.62-15.2,27.28-25.1c17.23-22.27,31.87-46.29,47.12-69.9c1.08-1.67,1.97-3.48,3.63-4.71
		c8.47-3.28,12.83-10.03,17.15-17.74c6.63-11.83,14.58-23,25.25-31.81c0.9-0.75,1.83-1.47,3.13-1.22c2.9,3.49,6.86,6.35,6.88,11.55
		c-2.16,1.39-4.52,1.05-6.76,0.49c-4-1-6.37,0.64-7.8,4.24c-1.41,3.55-3.24,6.94-4.56,10.51c-3.83,10.34-10.69,18.65-17.87,26.67
		c-4.65,5.19-9.56,10.12-14.02,15.51c-2.96,3.57-2.53,6.36-0.57,10.28c2.96,5.93,7.24,7.48,13.37,6.63
		c8.74-1.2,11.29,0.51,15.22,9.27c-18.09,32.43-37.48,63.84-63.73,90.64c-40.77,41.62-124.34,35.74-147.98-36.31
		C131.97,428.41,129.88,421.76,129.03,414.8z"/>
	<path class="st0" d="M635.93,343.79c-6.8,0.17-8.81,6.07-11.58,10.43c-5.33,8.41-6.34,18.41-8.26,27.93
		c-1.08,5.34-2.29,10.68-4.02,15.76c-1.08,3.18-0.92,5.87-0.01,8.62c2.99,9.07,6.57,17.95,6.97,27.69c0.09,2.31,1.65,3.32,4.23,2.72
		c2.28-0.53,4.42-0.09,4.66,2.95c-1.4,4.27-2.94,8.47-5.9,11.97c-9.15,0.77-12.61-2.02-12.39-10.8c0.23-9.44-3.17-17.89-6.35-26.43
		c-2.49-6.68-2.44-13.41-0.49-20.06c1.69-5.76,2.21-11.35,0.41-17.15c-1.72-5.53-1.98-11.08,0.28-16.6
		c3.22-7.9,2.52-15.56-1.49-23.03c-1.88-3.5-1.54-7.03,0.21-10.53c1.87-3.72,3.67-7.47,5.59-11.15c1.56-2.98,1.06-5.47-0.48-8.41
		c-5.76-10.98-14.3-19.55-23.6-27.36c-4.68-3.94-8.03-8.83-11.74-13.5c-1.8-2.27-3.62-4.46-7.01-3.66
		c-5.21-3.97-7.02-9.77-8.5-15.76c0.83-1.53,2.25-1.45,3.44-0.86c4.56,2.29,9.54,3.57,13.76,6.73c10.95,8.18,22.9,9.37,35.49,4.08
		c1.48-0.62,2.89-1.82,4.6-0.56c8.66,18.47,14.11,37.96,18.1,57.88C633.79,324.29,635.75,333.92,635.93,343.79z"/>
	<path class="st0" d="M564.92,262.74c2.18-4.34,4.4-0.75,5.63,0.46c2.7,2.63,4.74,5.93,7.13,8.88c5.12,6.32,11.35,11.53,17.49,16.79
		c7.01,6,10.17,14.63,15.47,21.79c0.68,0.92,0.2,2.26-0.35,3.34c-0.76,1.48-1.34,3.07-2.25,4.45c-5.6,8.39-7.88,16.89-2.09,26.28
		c3.62,5.86,0.21,11.76-1.47,17.18c-1.69,5.46-1.38,10.37,0.17,15.5c1.63,5.4,1.88,10.82-0.17,16.1
		c-3.62,9.34-1.71,18.53,2.14,26.88c3.06,6.62,4,13.22,4.22,20.12c0.27,8.3,0.07,8.29,8.4,10.36c0.96,0.24,1.86,0.67,2.79,1.02
		c-2.05,8.22-7.5,14.25-13.03,20.23c-6.23-6.66-11.53-14.08-17.07-21.29c-1.73-2.26-1.45-5.07-1.34-7.7
		c0.28-6.56-0.13-12.9-3.77-18.69c-2.18-3.47-0.26-7.97-2.58-11.48c2.12-13.31,3.83-26.64,3.24-40.19
		c-1.56-36.01-7.23-71.14-21.87-104.4C564.84,266.57,563.47,264.81,564.92,262.74z"/>
	<path class="st0" d="M402.95,351.66c-6.26-10.14-12.52-20.27-18.79-30.4c-0.69-1.11-1.45-2.18-2.18-3.27
		c-4.95-5.69-9.53-11.61-11.44-19.12c15.06-11.16,30.19-22.23,44.47-34.39c2.39,0.15,3.24,2.14,4.29,3.75
		c11.32,17.36,22.27,34.96,32.56,52.96c0.81,1.42,1.75,2.86,1.26,4.66c-3.25,2.14-5.65,0.12-7.98-1.75c-3-2.41-5.05-5.69-7.47-8.63
		c-4.26-5.17-5.6-5.14-9.47,0.57c-6.5,9.6-12.73,19.39-19.43,28.85C406.93,347.23,406.23,350.56,402.95,351.66z"/>
	<path class="st0" d="M370.87,298.81c3.7,6.39,7.4,12.78,11.11,19.18c-10.66,18.66-21.32,37.33-31.99,55.98
		c-1.31,2.29-2.75,4.49-4.13,6.74c-0.51-0.41-1.26-0.7-1.51-1.23c-3.74-8.03-10.38-8.05-17.74-6.76c-2.16,0.38-4.97,0.93-6.51-1.36
		c-2.57-3.84-5.42-7.6-6.56-12.18c-0.21-0.83,0.85-2.1,1.54-3c3.97-5.11,7.91-10.21,12.61-14.72c10.42-9.98,18.08-21.79,23.51-35.17
		c3.99-9.84,4.22-9.74,14.68-9.49c1,0.02,2,0,3,0C370,297.02,370.66,297.69,370.87,298.81z"/>
	<path class="st0" d="M407.9,344.8c5.96-9.11,11.86-18.26,17.88-27.33c6.54-9.85,6.58-9.82,14.37-0.92
		c3.51,4.01,5.9,9.55,12.58,9.25c4.29,2.67,5.9,7.45,8.48,11.34c6.95,10.5,13.08,21.53,20.04,32.03c1.02,1.54,1.69,3.23,1.87,5.09
		c0.13,12.09,1.03,24.26-4.05,35.76c-4.09,9.26-8.75,18.24-13.7,27.05c-1.25,2.23-2.93,5.14-6.61,3.76
		c-5.05-6.39-9.53-13.18-13.94-20.03c0.47-1.48,1.39-2.75,2.55-3.65c6.06-4.7,8.29-11.94,12.14-18.09
		c1.92-3.07,1.28-6.84,1.58-10.27c0.99-11.35,0.36-22.53-4.38-33.22c-1.52-3.42-3.07-6.55-6.06-8.94c-3.25-2.6-5.88-5.89-9-8.66
		c-4.93-4.37-9.89-4.21-14.96-0.27C421.22,341.98,414.67,343.78,407.9,344.8z"/>
	<path class="st0" d="M407.9,344.8c2.81-1.42,5.68-2.6,8.73-3.51c4.22-1.27,8.51-2.57,11.24-6.74c1.6-2.45,8.76-2.17,12.43,0.55
		c14.71,10.91,23.07,25.22,22.56,43.97c-0.15,5.54-0.15,11.15-1.09,16.57c-1.11,6.38-5.01,11.78-8.54,17.01
		c-2.09,3.1-4.71,6.36-8.39,8.17c-3.36-5.33-6.71-10.65-10.07-15.98c9.21-8.87,10.28-19.75,8.07-31.59
		c-1.06-5.66-1.34-11.28-5.27-16.23c-5.79-7.29-15.99-6.44-21.95-2.49c-2.6,1.72-4.58,4.35-7.72,5.27
		c-2.09-2.45-3.53-5.29-4.95-8.15C404.6,349.37,406.25,347.09,407.9,344.8z"/>
	<path class="st0" d="M407.89,359.81c4.8-6.56,11.41-9.68,19.4-9.96c5.65-0.2,14.67,7.56,15.49,13.6c1.02,7.5,1.94,15.01,2.34,22.62
		c0.4,7.58-4.05,12.26-7.73,17.6c-0.46,0.67-1.73,0.8-2.62,1.17C425.41,390.07,416.37,375.11,407.89,359.81z"/>
	<path class="st0" d="M551.9,496.75c-10.32,0.53-20.49-0.18-30.3-3.78c-0.05-5.77,1.56-11.09,4.26-16.14
		c1.58-2.95,2.24-6.16,2.82-9.46c1.76-9.91,3.1-19.9,5.12-29.77c4.1-1.06,7.3,2.07,11.11,2.36c1.12,0.39,2.28,0.46,3.45,0.5
		c3.6,0.11,4.89,2.23,4.98,5.52c0.06,2.35-0.29,4.65-0.71,6.93c-1.99,10.78-0.94,21.5,0.34,32.25
		C553.43,489.05,554.43,493.09,551.9,496.75z"/>
	<path class="st0" d="M458.77,440.85c2.82-0.27,4.63-2.35,5.65-4.42c6.16-12.57,14.46-24.35,16.71-38.45
		c1.28-8.03,0.69-16.35,0.94-24.55c4.27,2.43,16.94,22.15,17.14,26.68c-3.47,5.75-6.31,11.84-6.91,18.56
		c-1.24,14.09-9.62,24.51-17.49,35.23c-0.95,1.29-2.14,2.67-4.16,2.01C466.1,451.36,462.43,446.1,458.77,440.85z"/>
	<path class="st0" d="M585.02,413.8c2.49-0.97,1.97,0.99,1.84,2.09c-0.57,4.53,0.87,8.53,3.23,12.21c2.02,3.17,2.4,6.7,1.71,10.05
		c-1.91,9.38,3.73,15.42,8.79,21.9c3.01,3.85,7.03,7.03,8.41,12.03c-5.57,6.68-12.22,11.96-20.12,15.63
		c-5.21-2.66-5.63-3.38-4.21-8.88c0.7-2.71,1.09-5.45-0.86-7.58c-7.35-8.06-8.28-18.15-9.31-28.25c-0.3-2.97-0.86-5.91-1.87-8.74
		c-0.15-0.65-0.24-1.39,0.19-1.89c4.61-5.38,7.81-11.62,10.94-17.9C583.97,414.06,584.54,413.92,585.02,413.8z"/>
	<path class="st0" d="M470.66,455.91c3.56-1.88,5.13-5.5,7.41-8.49c7.51-9.88,12.78-20.69,13.83-33.29
		c0.38-4.54,3.32-8.25,4.65-12.5c0.38-1.21,1.33-1.86,2.63-1.92c5.25,3.57,8.76,8.33,10.07,14.61c-3.6,12.79-5.7,26.02-11.07,38.29
		c-2.33,5.32-4.01,10.98-7.57,15.68c-1.21,1.6-2.03,4.03-4.85,3.57C480.17,467.07,475.02,461.86,470.66,455.91z"/>
	<path class="st0" d="M533.9,437.98c0.81,9.17-2.61,17.8-3.37,26.75c-0.53,6.3-3.06,11.73-5.49,17.34
		c-1.05,2.42-2.91,4.84-1.38,7.96c0.66,1.34-0.81,2.34-2.07,2.94c-7.25-1.52-13.76-4.72-19.83-8.87c-0.53-4.14,1.94-7.26,3.78-10.5
		c2.07-3.66,3.63-7.38,4.32-11.58c1.71-10.4,5.86-20.08,9.16-30.02c0.42-1.27,1.12-2.42,2.26-3.22
		C526.95,429.83,530.43,433.89,533.9,437.98z"/>
	<path class="st0" d="M521.9,428.79c-4.54,11.64-8.94,23.3-11.1,35.71c-1.26,7.23-6.47,12.85-9.04,19.6
		c-6.03-3.17-11.23-7.42-16.01-12.23c7.38-6.78,9.71-16.27,13.18-25.07c3.75-9.51,5.84-19.54,7.9-29.53
		c0.32-1.57,0.62-2.88,2.22-3.52c0.49-0.12,1.11-0.2,1.41,0.15C514.61,418.6,519.58,422.68,521.9,428.79z"/>
	<path class="st0" d="M551.9,496.75c0.57-9.79-1.82-19.37-2.02-29.11c-0.12-5.97,0.69-11.84,1.81-17.67c1.23-6.39,0.33-7.61-6-8.22
		c-0.62-0.06-1.2-0.47-1.8-0.71c0.56-0.93,1.48-1.42,2.46-1.44c5.72-0.11,11.42-1.12,17.15-0.41c2.6,2.38,2.91,5.66,2.64,8.72
		c-0.8,9.11,2,17.74,3.24,26.56c0.76,5.4,1.67,10.82,2.69,16.2c0.27,1.43,0.73,3.02-1.15,3.86
		C564.69,496.17,558.38,497.18,551.9,496.75z"/>
	<path class="st0" d="M570.94,494.53c-0.81-5.81-1.54-11.63-2.45-17.42c-1.13-7.14-2.53-14.24-3.58-21.39
		c-0.79-5.33,0.49-10.82-1.07-16.11c2.06-3.45,5.1-5.36,9.08-5.81c1.79,0.17,1.83,1.44,2.01,2.84c0.93,7.17,1.95,14.32,2.98,21.47
		c0.64,4.48,3.97,7.52,6.31,11.02c2.32,3.47,3.82,6.89,1.49,10.53c-2.9,4.53,2.44,5.26,3.17,8.05
		C583.37,491.23,577.25,493.15,570.94,494.53z"/>
	<path class="st0" d="M613.76,256.8c-5.48,2.06-10.44,5.54-16.79,5.06c-9.45-0.71-18.37-1.92-26.08-8.63
		c-3.61-3.14-8.6-5.51-13.99-5.45c-2.74,0.02-3.31-2.4-4.43-4.09c-9.8-14.77-21.31-27.63-37.64-35.57
		c-20.75-10.1-40.02-7.53-58.06,6.25c-5.81,4.44-11.32,9.29-16.48,14.51c-0.71,0.72-1.45,1.38-2.5,1.55
		c-8.94-1.94-17.42-5.39-26.11-8.13c-5.53-1.74-5.98-7.93-7.99-12.58c2.51-4.49,6.34-7.8,10.05-11.23c4.07,1.51,5.9,5.29,8.01,8.53
		c2.59,3.96,6.01,5.47,10.45,5.47c1.49,0,2.99,0.01,4.48,0.01c9.42-0.01,14.23-6.73,11.32-15.82c-1.77-5.51-3.23-11.13-6.51-16.06
		c-1.06-1.59-2.19-3.4-1.55-5.58c31.44-22.74,64.58-24.24,98.7-7.09c25.75,12.95,44.17,33.82,59.23,57.88
		C604.04,235.69,609.68,245.86,613.76,256.8z"/>
	<path class="st0" d="M157.82,243.64c4.67-10.66,11.06-20.31,17.91-29.64c16.84-22.97,37.14-41.75,64.44-51.67
		c10.54-3.83,21.42-6.06,32.73-5.54c1.57,1.76,1.53,3.95,1.55,6.1c0.05,5.79,0.32,11.59-0.06,17.35
		c-0.59,8.91-1.08,17.81-0.99,26.73c0.03,3.29-0.98,5.9-4.79,6.31c-24.91,4.74-40.06,21.85-52.98,41.81
		c-1.5,2.32-2.39,5.17-5.29,6.34c-2.08,0.25-3.86-0.82-5.78-1.29c-6.9-1.68-13.57-4.17-20.84-4.4c-8.93-0.28-16.3-5.2-23.94-9.13
		C158.69,246.05,157.27,245.42,157.82,243.64z"/>
	<path class="st0" d="M342.89,181.08c15.32,11.37,28.45,24.91,40,40.05c2.25,7.5,2.22,7.45-3.92,12.14
		c-10.39,7.94-20.83,15.81-31.17,23.81c-1.45,1.12-2.86,2.27-4.81,2.37c-2.21-0.25-3.4-1.89-4.68-3.42
		c-11.42-13.7-23.19-27.02-39.08-35.85c-0.88-0.49-1.63-1.16-1.85-2.23c0.05-2.29,1.7-3.5,3.27-4.69
		C314.78,202.59,328.8,191.79,342.89,181.08z"/>
	<path class="st0" d="M342.89,181.08c-2.61,5.07-7.76,7.34-11.95,10.62c-9.96,7.8-20.19,15.26-30.25,22.94
		c-1.14,0.87-1.91,2.22-2.86,3.35c-1.8,1.06-3.55,0.3-5.22-0.3c-6.72-2.43-13.6-3.78-20.78-3.5c-1.76,0.07-3.67,0.12-4.95-1.57
		c4.07-0.61,5.24-2.8,5.12-7c-0.47-16.28,1.6-32.53,0.88-48.83c20.32-0.57,39.08,4.24,56.27,15.43
		C333.72,175.18,338.02,178.59,342.89,181.08z"/>
	<path class="st0" d="M342.59,258.91c8.49-6.25,16.98-12.49,25.45-18.77c3.84-2.85,7.73-5.65,11.39-8.71
		c2.03-1.7,6.17-2.8,2.91-6.99c-0.47-0.6,0.34-2.18,0.55-3.31c2,2.21,4,4.42,6.01,6.62c4.76,3.17,6.97,8.51,10.69,12.58
		c4.99,7.81,10.68,15.14,15.63,22.99c0.09,0.48,0.01,0.93-0.26,1.35c-2.14,5.77-7.89,7.85-12.1,11.35
		c-9,7.48-18.62,14.2-27.92,21.33c-1.27,0.97-2.48,1.58-4.05,1.47c-0.66-0.67-1.33-1.34-1.99-2.01c-2.01-3.87-5.41-6.86-7.01-10.99
		c-4.01-1.62-5-5.94-7.76-8.67c-3.07-4.63-6.51-8.99-9.77-13.48C343.33,262.28,341.73,261.03,342.59,258.91z"/>
	<path class="st0" d="M157.82,243.64c9.51,6.05,19.3,10.93,31.04,11.31c7.54,0.25,14.6,3.58,21.79,5.84
		c0.56,5.75-3.87,9.56-5.63,14.41c-0.56,1.53-1.5,3.02-3.47,3.21c-5.99-0.84-10.79-5.17-16.96-5.65c-4.47-0.35-8.9-1.38-13.38-1.58
		c-7.72-0.35-13.79-4.53-20.17-8.06c-0.85-0.47-1.63-1.21-1.19-2.43C151.4,254.49,154.69,249.1,157.82,243.64z"/>
	<path class="st0" d="M414.56,263.78c-5.49-7.47-11.09-14.88-15.67-22.97c-1.22-1.6-0.63-3.15,0.21-4.64
		c1.86-3.26,2.16-6.85,2.68-10.49c0.56-3.97-0.3-7.14-3.03-9.93c1.28-2.31,2.69-4.52,4.94-6.04c2.09,0.88,2.74,2.8,3.22,4.74
		c1.18,4.72,4.24,7.44,8.9,8.15c7.91,1.19,14.95,4.92,22.44,7.33c0.28,1.85-0.77,3.17-1.83,4.44c-7.55,9.06-14.28,18.71-20.68,28.59
		C415.47,263.39,415.06,263.66,414.56,263.78z"/>
	<path class="st0" d="M439.95,175.05c4.5,7.52,7.94,15.47,10.19,23.98c1.68,6.36-4.23,14.76-10.72,14.77
		c-1.16,0-2.33-0.09-3.49,0.01c-7.05,0.63-13-0.69-16.51-7.85c-1.35-2.76-3.75-5-5.68-7.47
		C421.28,189.35,430.16,181.69,439.95,175.05z"/>
	<path class="st0" d="M183.74,344.8c-10.08-0.53-20.12-1.03-30.24-0.13c-5.44,0.48-10.95,0.18-16.23,1.88
		c-3.24,1.04-6.18-1.11-9.34-0.75c-0.19-6.88,1.34-13.51,2.89-20.13c0.82-0.15,1.66-0.25,2.46-0.03
		c15.13,4.25,30.51,2.77,45.86,1.96c2.54-0.13,4.98-0.09,6.97,1.79C187.89,334.92,187.18,340.07,183.74,344.8z"/>
	<path class="st0" d="M149.84,260.69c8.37,6.37,17.92,9.77,28.32,9.97c8.77,0.16,16.25,3.78,23.91,7.2
		c0.61,4.63-2.06,7.93-4.56,11.32c-11.86-2.8-24.16-0.55-36.06-3.11c-4.89-1.05-9.76-2.06-14.35-4.1c-1.64-0.73-3.53-1.18-4.24-3.17
		C144.47,272.48,146.85,266.47,149.84,260.69z"/>
	<path class="st0" d="M133.81,310.78c0.85-6.61,2.58-12.98,4.96-19.19c4.3-0.01,7.94,2.21,11.78,3.63
		c9.95,3.66,20.43,3.74,30.76,4.83c4.05,0.43,8.34-0.43,11.87,2.49c0.8,5.71-0.72,10.69-4.71,14.9c-9.21-0.38-18.46,0.65-27.61-1.51
		c-7.24-1.71-14.8-1.53-22.06-3.3C137.07,312.21,135.15,312.28,133.81,310.78z"/>
	<path class="st0" d="M133.81,310.78c8.83,1.1,17.75,1.75,26.46,3.48c5.27,1.05,10.44,1.62,15.75,1.54c4.31-0.07,8.61-0.16,12.83,1
		c2.08,5,0.12,9.11-2.85,13c-3.22-1.07-6.46-0.26-9.69-0.28c-13.53-0.09-27.21,2.08-40.58-1.74c-1.72-0.49-3.62-0.6-4.9-2.11
		C131.18,320.58,132.14,315.6,133.81,310.78z"/>
	<path class="st0" d="M192.86,302.8c-8.67-2.02-17.6-1.76-26.39-2.76c-9.91-1.13-18.95-4.06-27.7-8.46
		c0.76-4.46,2.12-8.72,4.09-12.79c8.34,4.38,17.63,5.53,26.62,7.54c3.55,0.79,7.54-0.7,11.29-0.43c5.72,0.4,11.6,0.24,16.96,2.9
		C198.53,294.31,196.22,298.74,192.86,302.8z"/>
	<path class="st0" d="M398.75,215.75c3.96,1.16,4.76,3.55,4.63,7.74c-0.2,6.26-2.49,11.68-4.49,17.32c-3.91-3.91-6.89-8.53-10-13.06
		C392.18,223.75,395.46,219.75,398.75,215.75z"/>
	<path class="st0" d="M317.01,336.8c12.78-19.97,25.56-39.95,38.35-59.92c2.17,2.98,4.34,5.95,6.51,8.93
		c-6.32,5.1-11.76,10.88-16.51,17.58c-5.34,7.53-10.96,14.75-14.86,23.24C327.94,332.19,322.79,335.1,317.01,336.8z"/>
</g>
</svg>
